<svg xmlns="http://www.w3.org/2000/svg" width="30" height="30" viewBox="0 0 30 30">
    <path fill="#948889" fill-rule="nonzero" d="M21.473 1.006L18.115 1c-3.773 0-6.21 2.705-6.21 6.89v3.178H8.527c-.292 0-.528.256-.528.571v4.604c0 .315.237.57.528.57h3.376V28.43c0 .316.237.571.528.571h4.405c.292 0 .528-.256.528-.57V16.812h3.948c.292 0 .528-.255.528-.57l.002-4.604a.596.596 0 0 0-.155-.404.509.509 0 0 0-.374-.167h-3.949V8.375c0-1.295.286-1.952 1.845-1.952h2.262c.292 0 .528-.257.528-.572V1.577c0-.315-.236-.57-.527-.571z"/>
</svg>
