<svg xmlns="http://www.w3.org/2000/svg" width="30" height="30" viewBox="0 0 30 30">
    <path fill="#948889" fill-rule="nonzero" d="M20.625 0C25.802 0 30 4.198 30 9.375v11.25C30 25.802 25.802 30 20.625 30H9.375C4.198 30 0 25.802 0 20.625V9.375C0 4.198 4.198 0 9.375 0zm0 2.813H9.375a6.57 6.57 0 0 0-6.563 6.562v11.25a6.57 6.57 0 0 0 6.563 6.563h11.25a6.57 6.57 0 0 0 6.563-6.563V9.375a6.57 6.57 0 0 0-6.563-6.563zM15 7.5a7.5 7.5 0 1 1 0 15 7.5 7.5 0 0 1 0-15zm0 2.813A4.693 4.693 0 0 0 10.312 15 4.694 4.694 0 0 0 15 19.688 4.694 4.694 0 0 0 19.688 15 4.693 4.693 0 0 0 15 10.312zm8.063-4.375a1 1 0 1 1 0 1.999 1 1 0 0 1 0-1.999z"/>
</svg>
