<svg xmlns="http://www.w3.org/2000/svg" width="24" height="24" viewBox="0 0 24 24">
    <path fill="#000000" fill-rule="nonzero" d="M10.993 12.03l-8.828 8.83c-.244.247-.195.696.05.942a.621.621 0 0 0 .443.185c.16 0 .438.056.56-.067l8.83-8.834 8.76 8.764c.123.123.33.137.491.137.16 0 .32-.061.443-.185.245-.246.364-.765.12-1.012l-8.758-8.76 8.76-8.765c.245-.247.129-.763-.116-1.01-.245-.246-.691-.296-.936-.05l-8.764 8.768-8.833-8.838c-.245-.246-.762-.126-1.007.12-.244.247-.29.693-.046.94l8.83 8.834z" />
</svg>
