<svg xmlns="http://www.w3.org/2000/svg" width="140" height="36" viewBox="0 0 140 36">
    <g fill="#706163" fill-rule="evenodd">
        <path d="M47.733 11.304v4.957h8.862v3.304h-8.862v5.13h10.316V28H44V8h14.049v3.304H47.733zM63.903 8h3.778v16.696H77.95V28H63.902V8zm22.47 19.11c-1.19-.595-2.11-1.442-2.762-2.544-.651-1.101-.977-2.39-.977-3.865V8h3.71v12.586c0 1.341.36 2.366 1.077 3.075.717.709 1.747 1.063 3.087 1.063s2.38-.354 3.116-1.063c.736-.709 1.105-1.734 1.105-3.075V8h3.71v12.701c0 1.475-.326 2.764-.977 3.865-.652 1.102-1.577 1.95-2.776 2.543-1.199.594-2.592.891-4.178.891-1.567 0-2.945-.297-4.135-.89zM104.293 8h7.619c2.606 0 4.621.715 6.047 2.145 1.426 1.43 2.139 3.633 2.139 6.609v2.463c0 2.976-.727 5.184-2.181 6.624-1.454 1.44-3.503 2.159-6.147 2.159h-7.477V8zm7.598 16.765c1.495 0 2.602-.464 3.322-1.39.72-.928 1.08-2.39 1.08-4.386v-1.795c0-2.078-.36-3.59-1.08-4.538-.72-.947-1.827-1.42-3.322-1.42h-3.793v13.529h3.793zm17.793-13.46v4.956h8.863v3.304h-8.863v5.13H140V28h-14.049V8H140v3.304h-10.316zM23.526 18.24C23.509 12.42 18.84 7.775 13.13 7.705A10.529 10.529 0 0 0 2.468 18.223c-.01 5.89 4.732 10.48 10.363 10.566 5.822.09 10.688-4.607 10.695-10.549M9.939 2.955c-.314-.314-.599-.603-.892-.885-.033-.032-.108-.034-.162-.03a1.022 1.022 0 1 1 .92-.903c-.005.048-.006.117.023.147.342.351.69.697 1.034 1.042 1.426-.661 2.841-.66 4.268-.001.344-.345.69-.691 1.034-1.042.025-.025.03-.08.027-.12-.061-.585.325-1.09.887-1.155.575-.067 1.07.331 1.142.921.077.615-.472 1.172-1.1 1.109a.266.266 0 0 0-.246.091c-.262.27-.53.535-.804.808.113.108.222.208.326.313a4.725 4.725 0 0 1 1.35 2.753c.015.114.062.157.157.196a12.763 12.763 0 0 1 4.278 2.846c1.919 1.935 3.136 4.243 3.609 6.933.375 2.14.247 4.248-.45 6.312-.462 1.366-1.168 2.6-2.02 3.756-.903 1.226-1.939 2.334-3.027 3.394-2.212 2.152-4.583 4.127-6.877 6.187-.136.123-.273.244-.418.373-.051-.044-.1-.084-.147-.126-1.876-1.665-3.76-3.322-5.626-4.998-1.329-1.193-2.605-2.441-3.754-3.813-1.118-1.335-2.07-2.771-2.69-4.41a12.148 12.148 0 0 1-.772-3.906c-.078-2.215.354-4.324 1.353-6.301C2.828 9.548 5.07 7.472 8.06 6.21c.117-.049.171-.102.19-.237a4.733 4.733 0 0 1 1.616-2.978c.015-.013.035-.02.073-.04m7.438 18.032a1.468 1.468 0 0 0-2.935.006c.002.813.655 1.47 1.462 1.472a1.473 1.473 0 0 0 1.473-1.478M4.653 16.913c.65-4.688 5.375-7.987 10.058-6.951-.69.37-1.163.908-1.383 1.645a2.626 2.626 0 0 0 .241 2.125 2.694 2.694 0 0 0 3.192 1.222c1.09-.362 2.048-1.499 1.806-3.054.553.26 1.796 1.987 2.275 3.168a8.378 8.378 0 0 1 .586 3.877 8.456 8.456 0 0 1-6.534 7.56c-3.489.798-6.755-.695-8.507-2.986 1.198-.128 2.13-.684 2.744-1.725.493-.835.597-1.735.344-2.67a3.474 3.474 0 0 0-4.822-2.211"/>
    </g>
</svg>
